<svg width="23" height="22" viewBox="0 0 23 22" fill="none" xmlns="http://www.w3.org/2000/svg">
<path d="M1.10555 0.910144H21.1312V20.9358H1.10555V0.910144Z" fill="transparent"/>
<path d="M22.0415 0H0.195312V21.8462H22.0415V0Z" fill="transparent" fill-opacity="0.6"/>
<path d="M22.0415 0H0.195312V21.8462H22.0415V0Z" fill="transparent"/>
<path d="M18.3506 19.823H13.9007C13.5931 19.823 13.3442 19.5741 13.3442 19.2683V14.8166C13.3442 14.5108 13.0953 14.2601 12.7878 14.2601H9.44898C9.14141 14.2601 8.89251 14.5108 8.89251 14.8166V19.2683C8.89251 19.5741 8.64361 19.823 8.33782 19.823H3.8861C3.57853 19.823 3.32964 19.5741 3.32964 19.2683V12.8361C3.39186 12.7934 3.46475 12.7703 3.51986 12.7187L11.1184 6.02157L18.724 12.7276C18.7773 12.7756 18.8467 12.7969 18.9071 12.8396V19.2683C18.9071 19.5741 18.6582 19.823 18.3506 19.823Z" fill="#18181B"/>
<path d="M19.46 11.892L11.4864 4.86063C11.2766 4.67395 10.962 4.67395 10.7504 4.86063L2.77853 11.892C2.54919 12.0982 2.19718 12.0787 1.99272 11.8511L1.24781 11.0244C1.04336 10.7951 1.06113 10.4431 1.29048 10.2386L10.1904 2.38053C10.7184 1.90407 11.522 1.90407 12.0482 2.38053L15.5683 5.48821V3.69081C15.5683 3.38324 15.8172 3.13434 16.1248 3.13434H18.3507C18.6582 3.13434 18.9071 3.38324 18.9071 3.69081V8.43409L20.9463 10.2368C21.1757 10.4413 21.1952 10.7933 20.989 11.0226L20.2459 11.8511C20.0396 12.0787 19.6876 12.0982 19.46 11.892Z" fill="#18181B"/>
</svg>
